<svg width="92px" height="82px" viewBox="0 0 92 82" version="1.1" xmlns="http://www.w3.org/2000/svg" xmlns:xlink="http://www.w3.org/1999/xlink">
    <g id="Group-3" filter="url(#filter-1)">
        <path d="M38,28.4005022 C34.8837299,34.9212125 28.1677459,39.4330101 20.3852225,39.4330101 C9.63281028,39.4330101 0.916257926,30.8206824 0.916257926,20.1968377 C0.916257926,9.57299305 9.63281028,0.9606653 20.3852225,0.9606653 C28.1677459,0.9606653 34.8837299,5.4724629 38,11.9931732 C41.1162701,5.4724629 47.8322541,0.9606653 55.6147775,0.9606653 C66.3671897,0.9606653 75.0837421,9.57299305 75.0837421,20.1968377 C75.0837421,30.8206824 66.3671897,39.4330101 55.6147775,39.4330101 C47.8322541,39.4330101 41.1162701,34.9212125 38,28.4005022 Z" id="Combined-Shape"></path>
        <path d="M0.916257926,19.7378461 C0.916257926,19.7378461 36.7075281,8.40446639 75.0837421,19.7378461 C75.0837421,42.2758297 38,65.5382566 38,65.5382566 C38,65.5382566 0.916257926,40.1195219 0.916257926,19.7378461 Z" id="Triangle-4"></path>
    </g>
</svg>